<svg width="274" height="57" viewBox="0 0 274 57" fill="none" xmlns="http://www.w3.org/2000/svg">
<rect width="274" height="57" rx="6" fill="#4E4891"/>
<path d="M74.148 34V24.228H75.996V32.362H79.846V34H74.148ZM84.1541 34.168C83.6127 34.168 83.1274 34.0793 82.6981 33.902C82.2781 33.7153 81.9187 33.4587 81.6201 33.132C81.3307 32.796 81.1067 32.3947 80.9481 31.928C80.7894 31.452 80.7101 30.92 80.7101 30.332C80.7101 29.7533 80.7847 29.2307 80.9341 28.764C81.0927 28.2973 81.3167 27.9007 81.6061 27.574C81.8954 27.238 82.2501 26.9813 82.6701 26.804C83.0901 26.6173 83.5661 26.524 84.0981 26.524C84.6674 26.524 85.1621 26.622 85.5821 26.818C86.0021 27.014 86.3474 27.28 86.6181 27.616C86.8887 27.952 87.0894 28.344 87.2201 28.792C87.3601 29.2307 87.4301 29.702 87.4301 30.206V30.794H82.5721V30.976C82.5721 31.508 82.7214 31.9373 83.0201 32.264C83.3187 32.5813 83.7621 32.74 84.3501 32.74C84.7981 32.74 85.1621 32.6467 85.4421 32.46C85.7314 32.2733 85.9881 32.0353 86.2121 31.746L87.1781 32.824C86.8794 33.244 86.4687 33.5753 85.9461 33.818C85.4327 34.0513 84.8354 34.168 84.1541 34.168ZM84.1261 27.868C83.6501 27.868 83.2721 28.0267 82.9921 28.344C82.7121 28.6613 82.5721 29.072 82.5721 29.576V29.688H85.5681V29.562C85.5681 29.058 85.4421 28.652 85.1901 28.344C84.9474 28.0267 84.5927 27.868 84.1261 27.868ZM91.2887 34C90.6727 34 90.2014 33.8413 89.8747 33.524C89.5574 33.1973 89.3987 32.7353 89.3987 32.138V28.12H88.3207V26.692H88.8807C89.1514 26.692 89.3334 26.6313 89.4267 26.51C89.5294 26.3793 89.5807 26.188 89.5807 25.936V24.69H91.1907V26.692H92.6887V28.12H91.1907V32.572H92.5767V34H91.2887ZM95.4161 23.5C95.7987 23.5 96.0741 23.5933 96.2421 23.78C96.4194 23.9573 96.5081 24.1813 96.5081 24.452V24.718C96.5081 24.97 96.4707 25.2267 96.3961 25.488C96.3307 25.74 96.2327 25.9873 96.1021 26.23C95.9714 26.4727 95.8174 26.7013 95.6401 26.916C95.4627 27.1307 95.2714 27.322 95.0661 27.49H93.8621C94.1607 27.21 94.4127 26.93 94.6181 26.65C94.8234 26.3607 94.9774 26.0433 95.0801 25.698C94.8094 25.6513 94.6134 25.544 94.4921 25.376C94.3707 25.1987 94.3101 24.9933 94.3101 24.76V24.452C94.3101 24.1813 94.3941 23.9573 94.5621 23.78C94.7394 23.5933 95.0241 23.5 95.4161 23.5ZM99.9456 34.168C99.2456 34.168 98.6576 34.0513 98.1816 33.818C97.7056 33.5753 97.2856 33.244 96.9216 32.824L98.0136 31.76C98.2843 32.068 98.5783 32.3107 98.8956 32.488C99.2223 32.6653 99.5956 32.754 100.016 32.754C100.445 32.754 100.753 32.6793 100.94 32.53C101.136 32.3807 101.234 32.1753 101.234 31.914C101.234 31.6993 101.164 31.5313 101.024 31.41C100.893 31.2793 100.664 31.1907 100.338 31.144L99.6096 31.046C98.8163 30.9433 98.2096 30.7193 97.7896 30.374C97.379 30.0193 97.1736 29.506 97.1736 28.834C97.1736 28.4793 97.239 28.162 97.3696 27.882C97.5003 27.5927 97.687 27.35 97.9296 27.154C98.1723 26.9487 98.4616 26.7947 98.7976 26.692C99.143 26.58 99.5256 26.524 99.9456 26.524C100.3 26.524 100.613 26.552 100.884 26.608C101.164 26.6547 101.416 26.7293 101.64 26.832C101.864 26.9253 102.069 27.0467 102.256 27.196C102.442 27.336 102.624 27.4947 102.802 27.672L101.752 28.722C101.537 28.498 101.28 28.3113 100.982 28.162C100.683 28.0127 100.356 27.938 100.002 27.938C99.6096 27.938 99.325 28.008 99.1476 28.148C98.9796 28.288 98.8956 28.47 98.8956 28.694C98.8956 28.9367 98.9656 29.1233 99.1056 29.254C99.255 29.3753 99.5023 29.464 99.8476 29.52L100.59 29.618C102.167 29.842 102.956 30.5607 102.956 31.774C102.956 32.1287 102.881 32.4553 102.732 32.754C102.592 33.0433 102.391 33.2953 102.13 33.51C101.868 33.7153 101.551 33.8787 101.178 34C100.814 34.112 100.403 34.168 99.9456 34.168ZM114.441 34.616C114.441 34.9987 114.371 35.3347 114.231 35.624C114.1 35.9227 113.881 36.17 113.573 36.366C113.265 36.562 112.868 36.7113 112.383 36.814C111.897 36.9167 111.305 36.968 110.605 36.968C109.989 36.968 109.466 36.926 109.037 36.842C108.607 36.7673 108.253 36.6553 107.973 36.506C107.702 36.366 107.506 36.1887 107.385 35.974C107.263 35.7593 107.203 35.5167 107.203 35.246C107.203 34.8353 107.315 34.5133 107.539 34.28C107.772 34.056 108.094 33.9113 108.505 33.846V33.692C108.206 33.6173 107.973 33.4727 107.805 33.258C107.646 33.034 107.567 32.7727 107.567 32.474C107.567 32.2873 107.604 32.124 107.679 31.984C107.753 31.8347 107.851 31.7087 107.973 31.606C108.103 31.5033 108.248 31.4193 108.407 31.354C108.565 31.2793 108.733 31.2233 108.911 31.186V31.13C108.463 30.9247 108.127 30.64 107.903 30.276C107.688 29.912 107.581 29.4873 107.581 29.002C107.581 28.2553 107.837 27.658 108.351 27.21C108.864 26.7527 109.615 26.524 110.605 26.524C110.829 26.524 111.048 26.538 111.263 26.566C111.487 26.594 111.692 26.6407 111.879 26.706V26.468C111.879 25.7587 112.224 25.404 112.915 25.404H114.049V26.776H112.495V26.972C112.877 27.1867 113.162 27.4667 113.349 27.812C113.535 28.1573 113.629 28.554 113.629 29.002C113.629 29.7393 113.372 30.332 112.859 30.78C112.355 31.228 111.603 31.452 110.605 31.452C110.175 31.452 109.802 31.41 109.485 31.326C109.345 31.3913 109.223 31.48 109.121 31.592C109.018 31.6947 108.967 31.8253 108.967 31.984C108.967 32.348 109.284 32.53 109.919 32.53H111.879C112.775 32.53 113.423 32.7167 113.825 33.09C114.235 33.454 114.441 33.9627 114.441 34.616ZM112.761 34.826C112.761 34.5927 112.667 34.4107 112.481 34.28C112.294 34.1493 111.972 34.084 111.515 34.084H109.023C108.771 34.2707 108.645 34.5227 108.645 34.84C108.645 35.12 108.761 35.3393 108.995 35.498C109.228 35.6567 109.625 35.736 110.185 35.736H111.081C111.669 35.736 112.093 35.6613 112.355 35.512C112.625 35.3627 112.761 35.134 112.761 34.826ZM110.605 30.234C111.482 30.234 111.921 29.8607 111.921 29.114V28.876C111.921 28.1293 111.482 27.756 110.605 27.756C109.727 27.756 109.289 28.1293 109.289 28.876V29.114C109.289 29.8607 109.727 30.234 110.605 30.234ZM118.347 34.168C117.806 34.168 117.321 34.0793 116.891 33.902C116.471 33.7153 116.112 33.4587 115.813 33.132C115.524 32.796 115.3 32.3947 115.141 31.928C114.983 31.452 114.903 30.92 114.903 30.332C114.903 29.7533 114.978 29.2307 115.127 28.764C115.286 28.2973 115.51 27.9007 115.799 27.574C116.089 27.238 116.443 26.9813 116.863 26.804C117.283 26.6173 117.759 26.524 118.291 26.524C118.861 26.524 119.355 26.622 119.775 26.818C120.195 27.014 120.541 27.28 120.811 27.616C121.082 27.952 121.283 28.344 121.413 28.792C121.553 29.2307 121.623 29.702 121.623 30.206V30.794H116.765V30.976C116.765 31.508 116.915 31.9373 117.213 32.264C117.512 32.5813 117.955 32.74 118.543 32.74C118.991 32.74 119.355 32.6467 119.635 32.46C119.925 32.2733 120.181 32.0353 120.405 31.746L121.371 32.824C121.073 33.244 120.662 33.5753 120.139 33.818C119.626 34.0513 119.029 34.168 118.347 34.168ZM118.319 27.868C117.843 27.868 117.465 28.0267 117.185 28.344C116.905 28.6613 116.765 29.072 116.765 29.576V29.688H119.761V29.562C119.761 29.058 119.635 28.652 119.383 28.344C119.141 28.0267 118.786 27.868 118.319 27.868ZM125.482 34C124.866 34 124.395 33.8413 124.068 33.524C123.751 33.1973 123.592 32.7353 123.592 32.138V28.12H122.514V26.692H123.074C123.345 26.692 123.527 26.6313 123.62 26.51C123.723 26.3793 123.774 26.188 123.774 25.936V24.69H125.384V26.692H126.882V28.12H125.384V32.572H126.77V34H125.482ZM135.651 34.168C135.007 34.168 134.424 34.0653 133.901 33.86C133.388 33.6453 132.944 33.328 132.571 32.908C132.207 32.488 131.927 31.97 131.731 31.354C131.535 30.7287 131.437 30.0053 131.437 29.184C131.437 28.3627 131.535 27.6347 131.731 27C131.927 26.356 132.207 25.8193 132.571 25.39C132.944 24.9513 133.388 24.62 133.901 24.396C134.424 24.172 135.007 24.06 135.651 24.06C136.528 24.06 137.256 24.2467 137.835 24.62C138.414 24.9933 138.876 25.558 139.221 26.314L137.639 27.154C137.499 26.7153 137.27 26.3653 136.953 26.104C136.636 25.8333 136.202 25.698 135.651 25.698C134.96 25.698 134.41 25.9313 133.999 26.398C133.598 26.8647 133.397 27.518 133.397 28.358V29.898C133.397 30.7473 133.598 31.4007 133.999 31.858C134.41 32.306 134.96 32.53 135.651 32.53C136.202 32.53 136.65 32.3807 136.995 32.082C137.35 31.7833 137.606 31.4147 137.765 30.976L139.263 31.858C138.908 32.586 138.437 33.1553 137.849 33.566C137.261 33.9673 136.528 34.168 135.651 34.168ZM143.625 34.168C143.103 34.168 142.631 34.0793 142.211 33.902C141.801 33.7247 141.446 33.468 141.147 33.132C140.858 32.796 140.634 32.3947 140.475 31.928C140.317 31.452 140.237 30.92 140.237 30.332C140.237 29.744 140.317 29.2167 140.475 28.75C140.634 28.2833 140.858 27.8867 141.147 27.56C141.446 27.224 141.801 26.9673 142.211 26.79C142.631 26.6127 143.103 26.524 143.625 26.524C144.148 26.524 144.619 26.6127 145.039 26.79C145.459 26.9673 145.814 27.224 146.103 27.56C146.402 27.8867 146.631 28.2833 146.789 28.75C146.948 29.2167 147.027 29.744 147.027 30.332C147.027 30.92 146.948 31.452 146.789 31.928C146.631 32.3947 146.402 32.796 146.103 33.132C145.814 33.468 145.459 33.7247 145.039 33.902C144.619 34.0793 144.148 34.168 143.625 34.168ZM143.625 32.726C144.101 32.726 144.475 32.5813 144.745 32.292C145.016 32.0027 145.151 31.578 145.151 31.018V29.66C145.151 29.1093 145.016 28.6893 144.745 28.4C144.475 28.1107 144.101 27.966 143.625 27.966C143.159 27.966 142.79 28.1107 142.519 28.4C142.249 28.6893 142.113 29.1093 142.113 29.66V31.018C142.113 31.578 142.249 32.0027 142.519 32.292C142.79 32.5813 143.159 32.726 143.625 32.726ZM148.616 34V26.692H150.408V27.91H150.478C150.627 27.518 150.861 27.1913 151.178 26.93C151.505 26.6593 151.953 26.524 152.522 26.524C153.278 26.524 153.857 26.7713 154.258 27.266C154.659 27.7607 154.86 28.4653 154.86 29.38V34H153.068V29.562C153.068 29.0393 152.975 28.6473 152.788 28.386C152.601 28.1247 152.293 27.994 151.864 27.994C151.677 27.994 151.495 28.022 151.318 28.078C151.15 28.1247 150.996 28.1993 150.856 28.302C150.725 28.3953 150.618 28.5167 150.534 28.666C150.45 28.806 150.408 28.974 150.408 29.17V34H148.616ZM156.847 34V26.692H158.639V27.91H158.709C158.858 27.518 159.091 27.1913 159.409 26.93C159.735 26.6593 160.183 26.524 160.753 26.524C161.509 26.524 162.087 26.7713 162.489 27.266C162.89 27.7607 163.091 28.4653 163.091 29.38V34H161.299V29.562C161.299 29.0393 161.205 28.6473 161.019 28.386C160.832 28.1247 160.524 27.994 160.095 27.994C159.908 27.994 159.726 28.022 159.549 28.078C159.381 28.1247 159.227 28.1993 159.087 28.302C158.956 28.3953 158.849 28.5167 158.765 28.666C158.681 28.806 158.639 28.974 158.639 29.17V34H156.847ZM168.031 34.168C167.49 34.168 167.004 34.0793 166.575 33.902C166.155 33.7153 165.796 33.4587 165.497 33.132C165.208 32.796 164.984 32.3947 164.825 31.928C164.666 31.452 164.587 30.92 164.587 30.332C164.587 29.7533 164.662 29.2307 164.811 28.764C164.97 28.2973 165.194 27.9007 165.483 27.574C165.772 27.238 166.127 26.9813 166.547 26.804C166.967 26.6173 167.443 26.524 167.975 26.524C168.544 26.524 169.039 26.622 169.459 26.818C169.879 27.014 170.224 27.28 170.495 27.616C170.766 27.952 170.966 28.344 171.097 28.792C171.237 29.2307 171.307 29.702 171.307 30.206V30.794H166.449V30.976C166.449 31.508 166.598 31.9373 166.897 32.264C167.196 32.5813 167.639 32.74 168.227 32.74C168.675 32.74 169.039 32.6467 169.319 32.46C169.608 32.2733 169.865 32.0353 170.089 31.746L171.055 32.824C170.756 33.244 170.346 33.5753 169.823 33.818C169.31 34.0513 168.712 34.168 168.031 34.168ZM168.003 27.868C167.527 27.868 167.149 28.0267 166.869 28.344C166.589 28.6613 166.449 29.072 166.449 29.576V29.688H169.445V29.562C169.445 29.058 169.319 28.652 169.067 28.344C168.824 28.0267 168.47 27.868 168.003 27.868ZM175.768 34.168C175.226 34.168 174.746 34.0793 174.326 33.902C173.906 33.7247 173.551 33.468 173.262 33.132C172.982 32.796 172.767 32.3947 172.618 31.928C172.468 31.452 172.394 30.92 172.394 30.332C172.394 29.744 172.468 29.2167 172.618 28.75C172.767 28.2833 172.982 27.8867 173.262 27.56C173.551 27.224 173.906 26.9673 174.326 26.79C174.746 26.6127 175.226 26.524 175.768 26.524C176.505 26.524 177.112 26.6873 177.588 27.014C178.073 27.3407 178.423 27.7933 178.638 28.372L177.168 29.03C177.084 28.722 176.925 28.47 176.692 28.274C176.468 28.0687 176.16 27.966 175.768 27.966C175.264 27.966 174.886 28.1247 174.634 28.442C174.391 28.7593 174.27 29.1747 174.27 29.688V31.018C174.27 31.5313 174.391 31.9467 174.634 32.264C174.886 32.572 175.264 32.726 175.768 32.726C176.197 32.726 176.528 32.6187 176.762 32.404C176.995 32.18 177.177 31.9047 177.308 31.578L178.68 32.236C178.437 32.88 178.068 33.3653 177.574 33.692C177.079 34.0093 176.477 34.168 175.768 34.168ZM182.343 34C181.727 34 181.256 33.8413 180.929 33.524C180.612 33.1973 180.453 32.7353 180.453 32.138V28.12H179.375V26.692H179.935C180.206 26.692 180.388 26.6313 180.481 26.51C180.584 26.3793 180.635 26.188 180.635 25.936V24.69H182.245V26.692H183.743V28.12H182.245V32.572H183.631V34H182.343ZM188.197 34.168C187.656 34.168 187.17 34.0793 186.741 33.902C186.321 33.7153 185.962 33.4587 185.663 33.132C185.374 32.796 185.15 32.3947 184.991 31.928C184.832 31.452 184.753 30.92 184.753 30.332C184.753 29.7533 184.828 29.2307 184.977 28.764C185.136 28.2973 185.36 27.9007 185.649 27.574C185.938 27.238 186.293 26.9813 186.713 26.804C187.133 26.6173 187.609 26.524 188.141 26.524C188.71 26.524 189.205 26.622 189.625 26.818C190.045 27.014 190.39 27.28 190.661 27.616C190.932 27.952 191.132 28.344 191.263 28.792C191.403 29.2307 191.473 29.702 191.473 30.206V30.794H186.615V30.976C186.615 31.508 186.764 31.9373 187.063 32.264C187.362 32.5813 187.805 32.74 188.393 32.74C188.841 32.74 189.205 32.6467 189.485 32.46C189.774 32.2733 190.031 32.0353 190.255 31.746L191.221 32.824C190.922 33.244 190.512 33.5753 189.989 33.818C189.476 34.0513 188.878 34.168 188.197 34.168ZM188.169 27.868C187.693 27.868 187.315 28.0267 187.035 28.344C186.755 28.6613 186.615 29.072 186.615 29.576V29.688H189.611V29.562C189.611 29.058 189.485 28.652 189.233 28.344C188.99 28.0267 188.636 27.868 188.169 27.868ZM197.586 32.782H197.516C197.385 33.202 197.138 33.538 196.774 33.79C196.41 34.042 195.985 34.168 195.5 34.168C194.576 34.168 193.866 33.8367 193.372 33.174C192.886 32.5113 192.644 31.564 192.644 30.332C192.644 29.1093 192.886 28.1713 193.372 27.518C193.866 26.8553 194.576 26.524 195.5 26.524C195.985 26.524 196.41 26.65 196.774 26.902C197.138 27.1447 197.385 27.476 197.516 27.896H197.586V23.64H199.378V34H197.586V32.782ZM196.074 32.684C196.503 32.684 196.862 32.5813 197.152 32.376C197.441 32.1707 197.586 31.8767 197.586 31.494V29.17C197.586 28.8153 197.441 28.5307 197.152 28.316C196.862 28.1013 196.503 27.994 196.074 27.994C195.607 27.994 195.229 28.1527 194.94 28.47C194.66 28.778 194.52 29.1933 194.52 29.716V30.976C194.52 31.4987 194.66 31.914 194.94 32.222C195.229 32.53 195.607 32.684 196.074 32.684Z" fill="white"/>
</svg>
