<svg width="197" height="201" viewBox="0 0 197 201" fill="none" xmlns="http://www.w3.org/2000/svg">
<g clip-path="url(#clip0)">
<path d="M83.0541 92.6397L154.184 92.5119C154.311 92.5119 154.433 92.461 154.523 92.3706C154.613 92.2801 154.663 92.1573 154.663 92.0294C154.663 91.9014 154.613 91.7787 154.523 91.6882C154.433 91.5977 154.311 91.5469 154.184 91.5469L83.0541 91.6747C82.927 91.6747 82.805 91.7255 82.7151 91.816C82.6252 91.9065 82.5747 92.0292 82.5747 92.1572C82.5747 92.2851 82.6252 92.4078 82.7151 92.4983C82.805 92.5888 82.927 92.6397 83.0541 92.6397Z" fill="#3F3D56"/>
<path d="M81.9913 99.3946C85.698 99.3946 88.7028 96.3703 88.7028 92.6396C88.7028 88.909 85.698 85.8846 81.9913 85.8846C78.2846 85.8846 75.2798 88.909 75.2798 92.6396C75.2798 96.3703 78.2846 99.3946 81.9913 99.3946Z" fill="#3F3D56"/>
<path d="M150.995 92.6055C141.896 92.6055 133.002 89.8899 125.436 84.8021C117.871 79.7143 111.974 72.4828 108.492 64.0221C105.01 55.5613 104.099 46.2514 105.874 37.2696C107.649 28.2877 112.031 20.0373 118.465 13.5618C124.899 7.08623 133.096 2.67632 142.02 0.889715C150.944 -0.896887 160.194 0.0200634 168.6 3.52461C177.007 7.02916 184.192 12.9639 189.247 20.5783C194.302 28.1928 197 37.145 197 46.3028C196.986 58.5788 192.135 70.348 183.51 79.0284C174.886 87.7089 163.192 92.5917 150.995 92.6055ZM150.995 3.19332C142.524 3.19332 134.243 5.72164 127.199 10.4586C120.155 15.1955 114.665 21.9283 111.423 29.8055C108.182 37.6827 107.333 46.3506 108.986 54.713C110.639 63.0754 114.718 70.7568 120.708 76.7858C126.698 82.8147 134.33 86.9205 142.639 88.5839C150.948 90.2473 159.56 89.3936 167.386 86.1307C175.213 82.8679 181.902 77.3424 186.609 70.2531C191.315 63.1638 193.827 54.829 193.827 46.3028C193.814 34.8734 189.298 23.9159 181.268 15.8341C173.238 7.75233 162.351 3.20629 150.995 3.19332Z" fill="#3F3D56"/>
<path d="M170.846 64.8554C169.162 64.8565 167.516 64.3551 166.115 63.4144C164.714 62.4738 163.622 61.1363 162.977 59.5709C162.331 58.0056 162.162 56.2828 162.489 54.6204C162.816 52.9579 163.626 51.4306 164.816 50.2314C166.006 49.0322 167.523 48.2151 169.174 47.8833C170.825 47.5515 172.537 47.7201 174.093 48.3676C175.649 49.0151 176.98 50.1124 177.916 51.5209C178.853 52.9294 179.353 54.5858 179.354 56.2806C179.355 58.5529 178.459 60.7325 176.864 62.3404C175.268 63.9483 173.104 64.8529 170.846 64.8554ZM150.995 64.8554C148.74 64.8528 146.577 63.9498 144.982 62.3445C143.387 60.7392 142.49 58.5626 142.487 56.2924V36.3132C142.487 34.0421 143.384 31.864 144.979 30.2581C146.575 28.6522 148.739 27.75 150.996 27.75C153.252 27.75 155.416 28.6522 157.012 30.2581C158.607 31.864 159.504 34.0421 159.504 36.3132V56.2924C159.501 58.5627 158.604 60.7393 157.009 62.3446C155.414 63.9499 153.251 64.8529 150.995 64.8554ZM131.151 64.8554C128.893 64.8528 126.729 63.9491 125.133 62.3426C123.537 60.7362 122.639 58.5581 122.637 56.2862V48.3039C122.637 46.0312 123.534 43.8516 125.13 42.2446C126.727 40.6376 128.893 39.7348 131.151 39.7348C133.409 39.7348 135.574 40.6376 137.171 42.2446C138.768 43.8516 139.665 46.0312 139.665 48.3039V56.2862C139.662 58.5581 138.764 60.7362 137.168 62.3427C135.572 63.9492 133.408 64.8529 131.151 64.8554Z" fill="#6C63FF"/>
<path d="M12.3965 159.706V160.482C12.3976 161.769 12.906 163.003 13.8101 163.913C14.7142 164.823 15.9402 165.335 17.2188 165.336H58.1117C59.3905 165.335 60.6168 164.824 61.521 163.914C62.4253 163.004 62.9335 161.769 62.9339 160.482V159.706C62.9364 158.57 62.5401 157.47 61.815 156.6C61.5737 156.311 61.3007 156.05 61.0011 155.823H39.7908C39.535 155.823 39.2898 155.721 39.1089 155.539C38.9281 155.357 38.8264 155.11 38.8263 154.852H17.2188C15.9404 154.854 14.7148 155.366 13.8108 156.276C12.9069 157.186 12.3983 158.419 12.3965 159.706Z" fill="#3F3D56"/>
<path d="M34.9663 200.865H39.9814L39.9814 165.143H34.9663L34.9663 200.865Z" fill="#3F3D56"/>
<path d="M20.6929 200.687C20.6929 201.233 28.2926 200.898 37.6673 200.898C47.042 200.898 54.6417 201.233 54.6417 200.687C54.6417 200.142 47.042 195.817 37.6673 195.817C28.2926 195.817 20.6929 200.142 20.6929 200.687Z" fill="#3F3D56"/>
<path d="M20.2663 158.887L37.3796 161.636L57.2628 164.831L64.1568 165.938C64.8186 166.043 65.4949 165.88 66.0372 165.484C66.5796 165.088 66.9438 164.491 67.0501 163.826L67.3627 161.861L67.652 160.032L67.891 158.525C67.9451 158.189 67.9306 157.844 67.8484 157.513C67.7661 157.182 67.618 156.871 67.4128 156.6C67.1702 156.265 66.8477 155.998 66.4752 155.823H39.7907C39.535 155.823 39.2897 155.721 39.1088 155.539C38.928 155.357 38.8264 155.11 38.8263 154.852V154.087C38.8264 153.83 38.928 153.583 39.1088 153.401C39.2897 153.219 39.535 153.117 39.7907 153.117H50.2763L45.4424 152.34L30.582 149.952L21.9059 148.558C21.2425 148.453 20.5645 148.616 20.0206 149.013C19.4767 149.409 19.1114 150.007 19.0048 150.674L18.1638 155.971C18.0611 156.638 18.2245 157.318 18.6183 157.864C19.0122 158.411 19.6045 158.778 20.2663 158.887Z" fill="#6C63FF"/>
<path d="M57.2627 158.149V187.74C57.2637 188.414 57.5302 189.06 58.0038 189.537C58.4775 190.014 59.1196 190.282 59.7895 190.283H65.1249C65.7948 190.282 66.437 190.014 66.9107 189.537C67.3843 189.06 67.6509 188.414 67.6519 187.74V158.149C67.6528 157.588 67.4666 157.042 67.1233 156.6C66.8691 156.26 66.5314 155.992 66.1434 155.823H58.7672C58.381 155.993 58.0448 156.261 57.7912 156.6C57.4484 157.042 57.2624 157.588 57.2627 158.149Z" fill="#6C63FF"/>
<path d="M41.183 108.065C41.2101 108.329 41.2778 108.587 41.3836 108.83C41.5443 109.201 41.7918 109.527 42.1051 109.781L42.1167 109.789L57.3397 122.217L57.5633 122.396L60.7153 124.97L61.668 125.747H78.1525L77.2035 124.97L64.1756 114.332L55.4454 107.203L48.6519 101.658C48.2543 101.332 47.7667 101.137 47.2553 101.099C47.2533 101.097 47.2505 101.095 47.2476 101.095C47.0959 101.084 46.9435 101.087 46.7923 101.103C46.5659 101.126 46.3438 101.181 46.1326 101.266C45.9882 101.319 45.8508 101.389 45.7237 101.476C45.4838 101.623 45.2711 101.811 45.0949 102.031L41.7848 106.135L41.7347 106.201C41.5249 106.459 41.3681 106.757 41.2734 107.077C41.1787 107.397 41.1479 107.733 41.183 108.065Z" fill="#6C63FF"/>
<path d="M42.1172 109.789C42.4041 110.511 42.8213 111.173 43.3478 111.742L53.4823 122.699C53.7273 122.925 54.0142 123.101 54.3266 123.216C54.6391 123.33 54.971 123.381 55.3032 123.367C55.6354 123.352 55.9615 123.271 56.2627 123.129C56.5639 122.987 56.8343 122.787 57.0584 122.54L57.3402 122.218L57.4636 122.078L61.8422 117.135L63.7248 115.007C63.85 114.876 63.9588 114.73 64.0488 114.572C64.0951 114.495 64.1375 114.413 64.1761 114.332C64.334 113.969 64.4066 113.574 64.3882 113.178C64.3754 112.842 64.2954 112.511 64.1529 112.206C64.0104 111.901 63.8084 111.629 63.5588 111.404L51.8079 102.365C50.5113 101.364 48.8789 100.91 47.2558 101.099C47.2537 101.097 47.251 101.095 47.248 101.095C46.8875 101.141 46.5314 101.216 46.1832 101.32C46.0289 101.363 45.8786 101.417 45.7241 101.476C44.7279 101.853 43.8446 102.481 43.1587 103.301C42.4126 104.183 41.921 105.254 41.7374 106.398C41.5538 107.542 41.6851 108.715 42.1172 109.789V109.789Z" fill="#2F2E41"/>
<path d="M37.3049 92.0751C47.984 92.0751 56.6411 83.3619 56.6411 72.6137C56.6411 61.8655 47.984 53.1523 37.3049 53.1523C26.6259 53.1523 17.9688 61.8655 17.9688 72.6137C17.9688 83.3619 26.6259 92.0751 37.3049 92.0751Z" fill="#6C63FF"/>
<path d="M32.1559 156.204L39.3276 157.353L39.4897 157.38L50.3919 159.131L57.2627 160.238L67.3625 161.861L67.6518 161.907L69.1524 162.148L76.0464 163.255C76.7082 163.36 77.3845 163.197 77.9269 162.801C78.4692 162.405 78.8335 161.808 78.9397 161.143L79.5416 157.353L79.7808 155.846C79.7808 155.839 79.7846 155.831 79.7846 155.823H39.7906C39.5348 155.823 39.2895 155.721 39.1087 155.539C38.9278 155.357 38.8262 155.11 38.8261 154.852V154.087C38.8262 153.83 38.9278 153.583 39.1087 153.401C39.2895 153.219 39.5348 153.117 39.7906 153.117H52.4287V148.873L51.6572 148.749L47.8457 148.135L33.7918 145.879C33.1293 145.773 32.4522 145.936 31.909 146.332C31.3658 146.728 31.0009 147.325 30.8944 147.992L30.5819 149.952L30.0534 153.292C29.9498 153.958 30.113 154.639 30.507 155.185C30.9011 155.731 31.494 156.097 32.1559 156.204Z" fill="#6C63FF"/>
<path d="M10.9883 139.011C10.9883 154.876 12.5894 164.365 37.2795 161.647C37.3141 161.643 37.345 161.64 37.3797 161.636C41.7834 161.198 46.1386 160.36 50.3921 159.131C52.6026 158.482 54.751 157.634 56.8116 156.6C57.2976 156.351 57.7644 156.091 58.2236 155.823H39.7908C39.5351 155.823 39.2898 155.721 39.109 155.539C38.9281 155.357 38.8265 155.11 38.8264 154.852V154.088C38.8265 153.83 38.9281 153.583 39.109 153.401C39.2898 153.219 39.5351 153.117 39.7908 153.117H52.429V128.593C52.4301 127.839 52.7283 127.115 53.2584 126.582C53.7885 126.048 54.5071 125.748 55.2568 125.747H65.538C65.4491 125.491 65.3606 125.231 65.2641 124.97C64.2996 122.284 63.1563 119.667 61.8422 117.135C60.0419 113.619 57.8993 110.292 55.4459 107.203C53.7375 105.05 51.8197 103.074 49.721 101.305C45.8514 98.0898 41.6387 96.1018 37.3643 96.1018C21.6012 96.1018 10.9883 123.146 10.9883 139.011Z" fill="#2F2E41"/>
<path d="M36.8985 79.8267L36.8784 79.0994C38.2227 79.0617 39.4078 78.9769 40.2984 78.322C40.5508 78.1258 40.7584 77.8772 40.9068 77.5931C41.0553 77.3089 41.1412 76.9959 41.1587 76.6754C41.1744 76.4795 41.1449 76.2827 41.0727 76.1001C41.0005 75.9176 40.8874 75.7542 40.7422 75.6228C40.1511 75.1204 39.1998 75.283 38.5065 75.603L37.9087 75.8789L39.0552 67.446L39.7711 67.5448L38.7958 74.718C39.7379 74.4392 40.6108 74.5593 41.2087 75.0674C41.4382 75.2692 41.6183 75.5216 41.7349 75.8049C41.8515 76.0883 41.9014 76.395 41.8808 76.701C41.8597 77.1317 41.7453 77.5525 41.5455 77.934C41.3458 78.3155 41.0656 78.6484 40.7246 78.9094C39.5804 79.751 38.0934 79.7929 36.8985 79.8267Z" fill="#2F2E41"/>
<path d="M47.2037 68.1635H43.312V68.8907H47.2037V68.1635Z" fill="#2F2E41"/>
<path d="M34.919 68.1635H31.0273V68.8907H34.919V68.1635Z" fill="#2F2E41"/>
<path d="M21.8732 67.2664C23.377 64.988 26.0231 64.0222 28.6324 63.7873C31.5695 63.5228 34.4074 64.0929 37.2749 64.6467C40.4308 65.2562 43.7708 65.8264 46.9507 65.0558C48.3574 64.7283 49.6719 64.0836 50.7951 63.1704C51.9182 62.2572 52.8208 61.0993 53.4346 59.7839C54.5989 57.2176 54.8497 54.3261 54.145 51.5956C53.3998 48.6915 51.5502 46.1362 49.308 44.2061C44.7316 40.2669 38.5385 38.4966 32.5818 38.6633C26.6477 38.8175 20.9123 40.8472 16.1882 44.4649C11.4562 48.2132 8.1264 53.4652 6.74219 59.3636C5.29474 65.2136 5.76626 71.3778 8.08633 76.9359C9.38982 79.9793 11.275 82.723 12.7297 85.6897C14.0841 88.452 15.1272 91.6635 14.2845 94.7445C13.545 97.448 11.3739 99.8498 8.64841 100.584C7.40838 100.911 6.09622 100.825 4.9093 100.337C3.72238 99.8493 2.72489 98.987 2.06685 97.8796C0.704364 95.7172 0.671765 92.885 2.71746 91.1391C3.23324 90.6916 3.83406 90.3544 4.48339 90.148C5.13271 89.9415 5.81697 89.8702 6.49456 89.9382C7.17215 90.0063 7.82891 90.2123 8.4249 90.5438C9.02089 90.8753 9.54366 91.3254 9.96142 91.8666C10.7913 92.9516 11.1628 94.322 10.9953 95.6808C10.8945 96.3676 11.9388 96.664 12.0405 95.9709C12.2846 94.5338 12.0139 93.0563 11.2766 91.8014C10.5393 90.5465 9.38332 89.5959 8.01459 89.1188C6.64586 88.6417 5.15329 88.6692 3.80283 89.1964C2.45236 89.7236 1.33171 90.7161 0.640527 91.9973C-0.593142 94.3318 0.0724966 97.1476 1.63851 99.1431C2.44649 100.206 3.54163 101.012 4.79289 101.465C6.04416 101.918 7.39856 101.998 8.69406 101.697C11.5446 101.034 13.8766 98.7538 14.9732 96.0742C16.1941 93.091 15.6347 89.762 14.4445 86.8672C13.158 83.738 11.2475 80.9316 9.73667 77.9162C8.36865 75.1911 7.49811 72.2409 7.16654 69.2061C6.50292 63.1118 7.87718 56.9688 11.0719 51.749C14.3282 46.6101 19.2984 42.8083 25.0896 41.0265C30.8 39.2224 37.098 39.2776 42.6892 41.4949C48.1967 43.6789 53.5148 48.4387 53.451 54.8313C53.4237 57.562 52.4165 60.3468 50.3383 62.1681C47.8547 64.3448 44.3966 64.5309 41.2746 64.1912C38.1327 63.8493 35.0816 62.9258 31.9262 62.6902C29.1817 62.4853 26.2207 62.6983 23.7701 64.0707C22.6289 64.7112 21.6574 65.6184 20.9372 66.7158C20.5502 67.3022 21.4885 67.8491 21.8732 67.2664V67.2664Z" fill="#2F2E41"/>
<path d="M24.9501 114.898C24.9809 114.969 25.0156 115.038 25.0541 115.104C25.0929 115.174 25.1354 115.241 25.1814 115.306L33.6377 127.556L34.2936 128.508L41.1914 138.494L47.8461 148.135L50.5389 152.041C50.6113 152.148 50.6927 152.248 50.7821 152.34C51.1984 152.781 51.7584 153.057 52.3598 153.117H52.4292V136.456L51.6576 135.337L43.0046 122.804L33.7112 109.342C33.3284 108.788 32.7431 108.41 32.0836 108.29C31.4241 108.17 30.7441 108.318 30.1928 108.701L27.3418 110.693L25.8102 111.765C25.326 112.104 24.9749 112.603 24.8178 113.175C24.6607 113.748 24.7075 114.357 24.9501 114.898Z" fill="#6C63FF"/>
<path d="M23.6264 114.599L24.0082 115.372L24.0121 115.376L24.1163 115.582L30.3157 127.968C30.6652 128.544 31.2271 128.957 31.8785 129.117C32.53 129.277 33.2179 129.171 33.7917 128.822L34.193 128.57L34.2932 128.508L42.2867 123.46C42.572 123.286 42.8202 123.057 43.0171 122.786C43.214 122.515 43.3557 122.208 43.4338 121.881C43.512 121.555 43.5252 121.216 43.4726 120.885C43.4201 120.553 43.3028 120.235 43.1276 119.95L34.3473 107.968C33.4866 106.793 32.2505 105.953 30.8468 105.588C29.443 105.223 27.9573 105.356 26.6393 105.964C26.3419 106.099 26.0555 106.257 25.7828 106.438C24.4923 107.296 23.5598 108.601 23.1622 110.106C22.7647 111.61 22.9299 113.209 23.6264 114.599Z" fill="#2F2E41"/>
<path d="M69.1533 155.823V185.057C69.1543 185.731 69.4209 186.377 69.8945 186.854C70.3682 187.331 71.0104 187.599 71.6803 187.6H77.0157C77.6856 187.599 78.3277 187.331 78.8013 186.854C79.275 186.377 79.5415 185.731 79.5425 185.057V155.823H69.1533Z" fill="#6C63FF"/>
<path d="M38.0547 154.088V154.852C38.0552 155.257 38.1946 155.648 38.4491 155.961C38.7035 156.274 39.0576 156.488 39.4513 156.569C39.5051 156.576 39.5592 156.588 39.6132 156.592C39.6711 156.596 39.7289 156.6 39.7907 156.6H99.2629C100.218 156.599 101.134 156.218 101.809 155.539C102.485 154.859 102.865 153.938 102.866 152.977V128.593C102.865 127.632 102.485 126.711 101.809 126.032C101.134 125.352 100.218 124.971 99.2629 124.97H55.2566C54.3024 124.972 53.3875 125.354 52.7127 126.033C52.0379 126.712 51.6583 127.633 51.6573 128.593V152.34H39.7907C39.3303 152.34 38.8887 152.524 38.5632 152.852C38.2376 153.18 38.0547 153.624 38.0547 154.088Z" fill="white"/>
<path d="M38.0547 154.088V154.852C38.0552 155.257 38.1946 155.648 38.4491 155.961C38.7035 156.274 39.0576 156.488 39.4513 156.569C39.5051 156.576 39.5592 156.588 39.6132 156.592C39.6711 156.596 39.7289 156.6 39.7907 156.6H99.2629C100.218 156.599 101.134 156.218 101.809 155.539C102.485 154.859 102.865 153.938 102.866 152.977V128.593C102.865 127.632 102.485 126.711 101.809 126.032C101.134 125.352 100.218 124.971 99.2629 124.97H55.2566C54.3024 124.972 53.3875 125.354 52.7127 126.033C52.0379 126.712 51.6583 127.633 51.6573 128.593V152.34H39.7907C39.3303 152.34 38.8887 152.524 38.5632 152.852C38.2376 153.18 38.0547 153.624 38.0547 154.088ZM38.8263 154.852V154.088C38.8263 153.83 38.928 153.583 39.1088 153.401C39.2897 153.219 39.5349 153.117 39.7907 153.117H52.4289V128.593C52.4299 127.839 52.7282 127.115 53.2583 126.582C53.7884 126.048 54.507 125.748 55.2567 125.747H99.2629C100.013 125.747 100.733 126.047 101.264 126.581C101.794 127.114 102.093 127.838 102.095 128.593V152.977C102.093 153.732 101.794 154.456 101.263 154.989C100.733 155.523 100.013 155.823 99.2629 155.823H39.7907C39.5349 155.823 39.2897 155.721 39.1088 155.539C38.928 155.357 38.8264 155.11 38.8263 154.852V154.852Z" fill="#3F3D56"/>
<path d="M77.2616 143.771C78.9001 143.771 80.2284 142.435 80.2284 140.785C80.2284 139.136 78.9001 137.8 77.2616 137.8C75.6232 137.8 74.2949 139.136 74.2949 140.785C74.2949 142.435 75.6232 143.771 77.2616 143.771Z" fill="#6C63FF"/>
<path d="M52.4405 152.752H51.6689V156.246H52.4405V152.752Z" fill="#3F3D56"/>
</g>
<defs>
<clipPath id="clip0">
<rect width="197" height="201" fill="white"/>
</clipPath>
</defs>
</svg>
